<svg version="1.0" xmlns="http://www.w3.org/2000/svg" width="800.000000" height="800.000000" viewBox="0 0 800.000000 800.000000" preserveAspectRatio="xMidYMid meet">
  <metadata>
    <rdf:RDF xmlns:rdf="http://www.w3.org/1999/02/22-rdf-syntax-ns#" xmlns:rdfs="http://www.w3.org/2000/01/rdf-schema#" xmlns:dc="http://purl.org/dc/elements/1.1/">
      <rdf:Description dc:format="image/svg+xml" dc:Label="1" dc:ContentProducer="001191330110MACRLGPT8B00000" dc:ProduceID="314907547" dc:ReservedCode1="ne4750BY3GxwqCs+NBiZgT9ORGWC692GvLFBwIMBO5M=" dc:ContentPropagator="001191330110MACRLGPT8B00000" dc:PropagateID="314907547" dc:ReservedCode2="ne4750BY3GxwqCs+NBiZgT9ORGWC692GvLFBwIMBO5M="/>
    </rdf:RDF>
  </metadata>
  <g transform="translate(0.000000,800.000000) scale(0.100000,-0.100000)" fill="#000000" stroke="none">
    <path d="M3761 6221 c-55 -21 -113 -53 -726 -406 -198 -114 -484 -278 -635 -364 -310 -176 -361 -216 -401 -316 l-24 -60 0 -955 0 -955 24 -60 c35 -87 100 -145 266 -239 208 -118 908 -519 1165 -668 309 -180 302 -176 366 -193 77 -20 113 -19 182 4 55 19 123 57 692 386 140 81 410 235 599 343 189 109 363 214 387 235 26 23 56 65 76 105 l33 67 3 935 c3 994 3 998 -45 1093 -38 76 -87 115 -299 236 -109 62 -404 231 -654 374 -669 382 -691 394 -755 423 -80 37 -179 42 -254 15z m889 -570 c959 -549 885 -503 917 -559 l28 -47 3 -904 c3 -1009 4 -980 -63 -1039 -19 -17 -54 -42 -77 -55 -24 -14 -153 -88 -288 -164 -135 -77 -366 -210 -515 -295 -148 -86 -356 -205 -461 -266 -256 -148 -265 -152 -320 -152 -43 0 -77 18 -388 197 -188 108 -548 315 -801 460 -253 145 -471 274 -484 286 -53 49 -51 17 -51 1004 0 869 1 920 19 958 10 22 27 48 37 57 10 9 186 112 389 228 204 117 460 264 570 328 509 293 601 346 630 359 18 8 54 12 90 10 59 -3 77 -13 765 -406z"/>
    <path d="M3115 4860 c-40 -16 -68 -58 -73 -108 -5 -52 -11 -29 258 -925 76 -253 146 -471 157 -485 38 -52 50 -54 384 -52 170 0 319 4 332 9 37 15 63 51 146 202 135 247 251 459 446 814 214 388 225 411 225 445 0 38 -15 69 -44 92 -19 16 -51 18 -296 18 -253 0 -278 -2 -306 -19 -29 -18 -125 -195 -415 -771 -12 -25 -19 -31 -23 -20 -3 8 -35 114 -71 235 -137 457 -154 506 -190 542 l-33 33 -238 -1 c-132 0 -248 -4 -259 -9z m429 -207 c8 -27 58 -192 112 -368 159 -529 154 -514 177 -530 29 -20 87 -18 113 3 19 16 72 115 388 732 l105 205 170 3 169 2 -67 -122 c-133 -243 -579 -1054 -597 -1085 l-19 -33 -252 0 -251 0 -30 98 c-17 53 -40 131 -52 172 -44 153 -279 936 -285 953 -7 16 4 17 148 17 l155 0 16 -47z"/>
  </g>
</svg>