<svg width="800" height="800" xmlns="http://www.w3.org/2000/svg" preserveAspectRatio="xMidYMid meet" version="1.0">
 <metadata/>

 <g>
  <title>Layer 1</title>
  <g id="svg_1" fill="#000000" transform="translate(0 800) scale(0.1 -0.1)">
   <path id="svg_2" d="m3801,6181c-55,-21 -113,-53 -726,-406c-198,-114 -484,-278 -635,-364c-310,-176 -361,-216 -401,-316l-24,-60l0,-955l0,-955l24,-60c35,-87 100,-145 266,-239c208,-118 908,-519 1165,-668c309,-180 302,-176 366,-193c77,-20 113,-19 182,4c55,19 123,57 692,386c140,81 410,235 599,343c189,109 363,214 387,235c26,23 56,65 76,105l33,67l3,935c3,994 3,998 -45,1093c-38,76 -87,115 -299,236c-109,62 -404,231 -654,374c-669,382 -691,394 -755,423c-80,37 -179,42 -254,15zm889,-570c959,-549 885,-503 917,-559l28,-47l3,-904c3,-1009 4,-980 -63,-1039c-19,-17 -54,-42 -77,-55c-24,-14 -153,-88 -288,-164c-135,-77 -366,-210 -515,-295c-148,-86 -356,-205 -461,-266c-256,-148 -265,-152 -320,-152c-43,0 -77,18 -388,197c-188,108 -548,315 -801,460c-253,145 -471,274 -484,286c-53,49 -51,17 -51,1004c0,869 1,920 19,958c10,22 27,48 37,57c10,9 186,112 389,228c204,117 460,264 570,328c509,293 601,346 630,359c18,8 54,12 90,10c59,-3 77,-13 765,-406z"/>
   <path id="svg_3" d="m3155,4820c-40,-16 -68,-58 -73,-108c-5,-52 -11,-29 258,-925c76,-253 146,-471 157,-485c38,-52 50,-54 384,-52c170,0 319,4 332,9c37,15 63,51 146,202c135,247 251,459 446,814c214,388 225,411 225,445c0,38 -15,69 -44,92c-19,16 -51,18 -296,18c-253,0 -278,-2 -306,-19c-29,-18 -125,-195 -415,-771c-12,-25 -19,-31 -23,-20c-3,8 -35,114 -71,235c-137,457 -154,506 -190,542l-33,33l-238,-1c-132,0 -248,-4 -259,-9zm429,-207c8,-27 58,-192 112,-368c159,-529 154,-514 177,-530c29,-20 87,-18 113,3c19,16 72,115 388,732l105,205l170,3l169,2l-67,-122c-133,-243 -579,-1054 -597,-1085l-19,-33l-252,0l-251,0l-30,98c-17,53 -40,131 -52,172c-44,153 -279,936 -285,953c-7,16 4,17 148,17l155,0l16,-47z"/>
  </g>
  <text font-weight="bold" xml:space="preserve" text-anchor="start" font-family="Noto Sans JP" font-size="64" id="svg_5" y="482.66666" x="464.99997" stroke-width="0" stroke="#000" fill="#000000">6</text>
 </g>
</svg>