<?xml version="1.0" standalone="no"?><!DOCTYPE svg PUBLIC "-//W3C//DTD SVG 1.1//EN" "http://www.w3.org/Graphics/SVG/1.1/DTD/svg11.dtd"><svg t="1765527140157" class="icon" viewBox="0 0 1638 1024" version="1.1" xmlns="http://www.w3.org/2000/svg" p-id="5241" xmlns:xlink="http://www.w3.org/1999/xlink" width="319.921875" height="200"><path d="M1494.642681 937.673369H143.39612c-74.768254 0-135.088536-60.681481-135.088536-135.088537V221.415168c0-74.768254 60.681481-135.088536 135.088536-135.088537h1351.246561c74.768254 0 135.088536 60.681481 135.088536 135.088537v581.169664c0.361199 74.768254-60.320282 135.088536-135.088536 135.088537z" fill="#2E3031" p-id="5242"></path><path d="M600.674427 281.37425c-0.361199 50.567901-39.009524 92.10582-88.493827 97.162611-63.209877 6.501587-116.306173-50.206702-106.553792-113.05538 8.307584-53.818695 61.042681-91.383422 116.667372-79.825044 45.511111 9.391182 79.102646 49.484303 78.380247 95.717813z" fill="#EB3A74" p-id="5243"></path><path d="M604.647619 618.373192c-3.973192-109.082187-94.273016-191.074427-188.184832-199.74321-55.624691-5.05679-98.246208 12.280776-119.556967 23.839154V214.191182H186.740035v387.205643c-8.307584 134.727337 83.437037 232.612346 210.940388 234.418343 110.888183 1.444797 210.940388-98.246208 206.967196-217.441976z m-209.495591 106.914991c-54.179894 0-98.607407-44.427513-98.607407-98.607407s44.788713-98.607407 98.607407-98.607407 98.607407 44.427513 98.607408 98.607407-44.427513 98.607407-98.607408 98.607407zM675.80388 214.191182h109.804586v616.205996h-109.804586zM989.686067 422.241975h-111.249383l1.444797 408.155203H989.686067zM1083.959083 214.191182l-0.722399 616.205996h110.526984V214.191182zM1317.655026 614.4l151.703704-192.158025h-129.670547l-145.924515 186.378836v12.280776l145.924515 209.495591h143.034921z" fill="#FFFFFF" p-id="5244"></path></svg>