<?xml version="1.0" standalone="no"?><!DOCTYPE svg PUBLIC "-//W3C//DTD SVG 1.1//EN" "http://www.w3.org/Graphics/SVG/1.1/DTD/svg11.dtd"><svg t="1765527248402" class="icon" viewBox="0 0 1536 1024" version="1.1" xmlns="http://www.w3.org/2000/svg" p-id="7051" xmlns:xlink="http://www.w3.org/1999/xlink" width="300" height="200"><path d="M0 0m86.730048 0l1127.490631 0q86.730048 0 86.730048 86.730048l0 693.840388q0 86.730048-86.730048 86.730049l-1127.490631 0q-86.730048 0-86.730048-86.730049l0-693.840388q0-86.730048 86.730048-86.730048Z" fill="#1E1F23" p-id="7052"></path><path d="M213.182459 478.142757c1.994791-12.012112 4.032947-27.493425 4.032947-27.493425a29.965232 29.965232 0 0 0-6.764943-24.327779c-9.540305-10.104051-37.033731-9.6704-37.033731-9.6704H100.823681l-27.88371 168.212929h26.019014l10.234146-62.358905 50.303428 0.216825a77.016283 77.016283 0 0 0 33.477799-6.634848 39.418807 39.418807 0 0 0 17.562835-24.197684s1.517776-6.244563 2.775361-13.833443z m-22.810003-22.116162c0 0.26019-2.298346 13.833443-5.377263 29.835137a13.356427 13.356427 0 0 1-11.231541 10.537701 87.727444 87.727444 0 0 1-18.430135 1.56114h-42.020709l9.236751-55.897516h38.074491s24.934889-0.52038 27.97044 3.339107a15.091028 15.091028 0 0 1 1.734601 10.667796z m217.388867 29.184661l3.512567-21.682512h-95.403053l-3.816123 23.720668h60.92786l-76.409173 73.416986-4.119677 24.241049h98.438605l3.902852-23.503843H327.926313l79.66155-76.322443z m-128.664027 26.4093h25.325174a110.841002 110.841002 0 0 0 2.211616-24.631334c-0.823935-13.356427-7.155229-23.373748-27.059775-24.804794-24.024223-1.691236-32.176848 7.372054-32.176848 7.372055l0.954031-6.027739H223.763525l-7.241959 44.70934-13.009507 76.582633h25.411904l5.420628-33.954814 7.979164-45.099625a30.355517 30.355517 0 0 1 11.231542-16.955725 27.62352 27.62352 0 0 1 25.195079-1.38768c3.989582 2.905457 2.558536 10.797891 2.558536 10.797891l-2.211616 13.313062z m261.317636-94.926038l-28.013806 168.256294h25.021619l27.970441-168.299659z m277.536155 46.877591l-36.816905 85.732653-8.673005-85.819383h-29.531582l-36.816905 85.559193-8.45618-85.385733h-23.937493l12.142206 121.422068h28.967837l37.250555-84.952082 8.673005 84.952082h29.488217l52.775234-121.422068h-24.848159z m-388.680712 68.603469l81.30942-0.216826 3.469202-20.164736c3.946217-22.940098 1.040761-40.372838-19.774451-47.181146a107.28507 107.28507 0 0 0-29.401486-2.601902 90.372711 90.372711 0 0 0-18.21331 1.387681 48.395367 48.395367 0 0 0-27.710251 15.004298 96.964194 96.964194 0 0 0-13.009507 39.765728 190.112266 190.112266 0 0 0-4.336502 40.199377 26.799585 26.799585 0 0 0 16.218519 23.720668 61.101319 61.101319 0 0 0 20.988671 4.336503 138.204332 138.204332 0 0 0 35.47259-2.038156 43.365024 43.365024 0 0 0 23.287018-14.397188 61.88189 61.88189 0 0 0 6.157834-10.147416 46.227116 46.227116 0 0 0 3.469202-9.843861l1.604505-6.504753h-26.019014s-1.431046 17.34601-15.394584 18.73369a135.689161 135.689161 0 0 1-24.154318 0.867301c-2.688632 0-18.12658 0.563745-16.391979-12.619222 0 0 0 2.124886 0 0a65.047536 65.047536 0 0 1 2.428441-18.343405z m6.071103-32.263579a22.202892 22.202892 0 0 1 5.810914-9.887225 25.325174 25.325174 0 0 1 13.443157-3.902852 100.346666 100.346666 0 0 1 27.059775 0.737205 9.23675 9.23675 0 0 1 7.328689 5.333898 42.497724 42.497724 0 0 1 0 16.652169H433.259957l2.211616-8.673004z m212.488619-35.255764a107.588625 107.588625 0 0 0-29.401486-2.601902 91.803756 91.803756 0 0 0-18.21331 1.387681 48.352002 48.352002 0 0 0-27.710251 15.004298 96.964194 96.964194 0 0 0-13.009507 39.765728 189.938806 189.938806 0 0 0-4.336503 40.199377 26.84295 26.84295 0 0 0 16.218519 23.720668 61.361509 61.361509 0 0 0 20.988672 4.336503 137.944142 137.944142 0 0 0 35.47259-2.038156 43.365024 43.365024 0 0 0 23.287018-14.353823 61.578334 61.578334 0 0 0 6.157833-10.147416 45.40318 45.40318 0 0 0 3.425837-9.84386l1.604506-6.504754h-26.019014s-1.431046 17.34601-15.394584 18.73369a136.860017 136.860017 0 0 1-24.154318 0.867301c-2.688632 0-18.12658 0.52038-16.39198-12.619222 0 0 0 2.168251 0 0a65.654647 65.654647 0 0 1 2.254982-18.03985l81.30942-0.216825 3.469202-20.164737c4.032947-23.287018 1.127491-40.719758-19.687721-47.571431z m-5.637453 44.188959h-55.680691l2.211616-8.673004a22.289622 22.289622 0 0 1 5.810913-9.887226 25.411904 25.411904 0 0 1 13.443158-3.902852 100.303301 100.303301 0 0 1 27.01641 0.737205 9.23675 9.23675 0 0 1 7.328689 5.377263 42.541089 42.541089 0 0 1-0.26019 16.261884z m290.805853-45.31645l-45.273086 88.81157-16.001694-88.72484h-25.411904l23.590573 122.809749-3.035551 5.160438s-4.856883 10.277511-10.841256 12.662587a36.51335 36.51335 0 0 1-16.088424 0.477015l-3.816123 22.636543 6.071104 1.084125a41.933978 41.933978 0 0 0 14.136998 0 32.827323 32.827323 0 0 0 17.77966-9.019925 133.95456 133.95456 0 0 0 19.123975-28.794376l65.047537-126.842696-25.498634-0.216825z" fill="#D13239" p-id="7053"></path><path d="M1095.530607 437.423a29.314756 29.314756 0 0 0-15.264488-17.69293 81.30942 81.30942 0 0 0-37.901031-4.986978 129.141042 129.141042 0 0 0-45.229721 5.594088 36.296525 36.296525 0 0 0-22.289622 22.766638 152.731615 152.731615 0 0 0-7.328689 32.480403h26.279205l1.56114-10.234146s2.818727-18.430135 9.063291-21.986067a29.401486 29.401486 0 0 1 8.933195-2.862092 117.085565 117.085565 0 0 1 22.679907-1.084125c10.927986 0.390285 15.004298 0.477015 26.019015 1.777966a9.23675 9.23675 0 0 1 8.282719 12.012111l-2.168251 16.045059a39.028522 39.028522 0 0 1-3.512567 11.665192 22.940098 22.940098 0 0 1-12.055477 7.805704c-8.673005 2.818727-38.247951 10.364241-38.247951 10.364241l-23.287018 6.721579a55.507231 55.507231 0 0 0-22.332987 13.009507 53.382345 53.382345 0 0 0-12.272302 24.284414c-1.084126 5.290533-7.241959 41.630423-7.241959 41.630423h125.75857l4.336502-25.195079h-99.305905l1.777966-10.277511s1.170856-10.581066 5.420628-14.050268a22.289622 22.289622 0 0 1 9.973956-5.377263c4.726788-1.691236 20.945307-6.027738 20.945306-6.027738l37.467381-10.234146a59.930464 59.930464 0 0 0 28.490821-16.478709 91.847121 91.847121 0 0 0 11.144811-32.653863 136.383001 136.383001 0 0 0 0.303555-27.01641z m-781.741292-41.196773c-15.741504 10.320876-46.920956 34.215004-46.920956 34.215004h79.965105s17.95312-14.527283 30.659072-23.894129 35.862875-24.067588 35.862875-24.067588l-45.14299-21.205497s-38.247951 23.764033-54.423106 34.95221z m166.044678-90.719631a701.082347 701.082347 0 0 0-78.057043 36.990365l37.077095 25.064984a428.576535 428.576535 0 0 1 49.479493-25.758824c24.631334-11.665192 67.562708-26.019015 67.562708-26.019014l-7.545514-35.515955s-23.807398 7.415419-68.386644 25.281809z m96.920829-33.954814l6.418024 36.383255a529.877231 529.877231 0 0 1 65.611282-12.228937 404.031931 404.031931 0 0 1 94.839308 0.433651l18.430135-56.374532s-55.637326 3.686027-97.571304 11.535096-87.727444 20.034641-87.727445 20.034642z m353.164758-25.368539a857.93364 857.93364 0 0 0-126.235586-7.718975l-30.962627 62.445635s17.736295 4.076312 42.064074 11.231542a367.605311 367.605311 0 0 1 77.666758 35.515954l148.265018-77.796853a862.140047 862.140047 0 0 0-110.754272-23.633938z m289.461537 143.10458a159.670019 159.670019 0 0 0-114.700489-96.660639l-185.689034 71.855845 32.610498 24.804794h267.779025z m-15.437949 133.000529l17.6062-105.854024h-31.179452l-97.09429 104.639803-4.336502 26.49603h84.908717l-6.201198 37.163826h26.019014l6.157834-37.207191h24.067588l4.336503-25.368539h-24.197684z m-26.019014 0h-54.900121l66.825502-71.422195-11.925381 71.508925z" fill="#B3B2B1" p-id="7054"></path></svg>