<?xml version="1.0" standalone="no"?><!DOCTYPE svg PUBLIC "-//W3C//DTD SVG 1.1//EN" "http://www.w3.org/Graphics/SVG/1.1/DTD/svg11.dtd"><svg t="1765181578657" class="icon" viewBox="0 0 3410 1024" version="1.1" xmlns="http://www.w3.org/2000/svg" p-id="8047" xmlns:xlink="http://www.w3.org/1999/xlink" width="666.015625" height="200"><path d="M1704.197245 975.576874" fill="#272636" p-id="8048"></path><path d="M579.925507 0.005365c18.38828 1.570651 36.767586 3.245413 55.166636 4.690412 64.944161 5.096088 128.617441 17.070729 191.278324 34.775103 77.218571 21.820376 150.893755 52.208428 221.038115 91.121073 49.015071 27.191104 94.987566 58.887732 138.235208 94.528039 39.661173 32.687484 75.472008 69.236076 105.60337 110.834085 40.675364 56.155697 69.182225 117.147203 66.995879 188.657581-1.278061 41.800848-18.612659 77.886322-43.777175 109.848614-43.301492 54.997903-100.379835 90.943365-166.21074 113.034791-48.183972 16.169624-97.956545 24.669088-148.856396 23.789524-39.237546-0.678521-78.485862-2.600997-117.640836-5.257641-15.013625-1.017782-29.838772-5.361753-44.645969-8.661016-7.009589-1.561676-10.42194 0.080776-13.548881 7.120881-4.28294 9.635717-9.49032 19.533509-16.657872 27.083402-19.492223 20.53693-52.732576 13.785825-62.432915-12.793174-4.89325-13.407074-6.971894-27.936041-9.447239-42.107798-3.220283-18.449311-13.18808-30.240859-30.441902-37.835628-76.261821-33.570638-140.344367-82.504933-187.785197-151.818195-4.521679-6.605708-8.309191-13.740949-12.100293-20.81157-11.768212-21.955004-6.548267-44.412615 13.342453-59.250328 39.320117-29.336164 83.441938-48.408351 130.633259-60.61455 27.015191-6.986254 54.231426-13.277832 81.535617-19.045261 8.960786-1.891961 8.707687-7.472707 9.402364-14.06944 3.904189-37.096076 7.63785-74.219077 12.400063-111.209246 1.570651-12.193634 5.650752-24.130579 9.265941-35.975978 4.207549-13.79121 14.308179-16.356307 25.374534-7.393726 20.267676 16.415543 26.392316 39.551676 29.899803 63.585324 3.873673 26.532328 6.634428 53.229799 9.81522 79.862649 1.150614 9.632127 4.266785 15.902165 16.070897 16.126543 18.822677 0.359006 37.605864 2.593817 56.414181 3.932909 60.334525 4.29371 119.168406 14.211247 173.846794 42.301661 28.998699 14.898743 47.807016 36.245232 53.28365 69.110424 5.605877 33.647825-20.513595 67.95981-56.819858 71.797583-13.112689 1.387558-26.568229 0.497223-39.77426-0.543894-3.916754-0.308745-9.066693-3.947269-10.69299-7.438601-1.007011-2.16301 2.825376-7.732986 5.756659-10.351934 6.853422-6.126435 14.344079-11.576144 21.811401-16.973797 18.275193-13.213211 18.189032-25.449926-2.981544-33.227788-24.992193-9.17978-51.048839-16.340152-77.236522-21.179551-41.014625-7.580409-82.463647-12.969087-123.855228-18.287759-17.792331-2.285072-19.854819 0.753912-20.282036 19.073982-0.784428 33.821942-2.918718 67.669015-2.168395 101.453262 0.737757 33.267278 4.356536 66.469936 6.704435 99.699518 0.62108 8.793849 6.440565 12.85959 14.116111 13.986868 56.241859 8.249955 112.525003 12.23133 169.405892 5.602287 40.450986-4.715542 80.192935-12.233125 117.721613-27.736793 38.307721-15.823183 76.972652-32.72518 103.363173-66.71406 42.552965-54.798655 42.770164-114.513895 16.072693-175.828507-31.136579-71.513968-82.515703-126.72907-145.492511-170.637282-42.54758-29.66645-87.098413-56.96705-132.84653-81.406375-55.653089-29.731071-114.020262-54.173985-175.151781-70.900068-33.502427-9.167215-66.977929-19.341441-101.140927-24.949112-45.803763-7.519378-92.160395-12.416218-138.470357-15.844724-32.42541-2.401749-65.263676-1.952992-97.737551 0.078981-20.49026 1.283446-40.686135 7.67016-60.9215 12.182864-3.161047 0.703651-5.830255 3.613394-10.614008 6.73136 4.322431 2.347898 6.722385 4.175238 9.429289 5.020697 7.610924 2.376619 15.713687 3.536208 22.899189 6.776236 4.378077 1.974532 7.422446 6.905478 11.068151 10.508102-4.30089 3.764176-8.815389 10.958654-12.87036 10.70735-19.066801-1.182924-38.156938-3.67263-56.880889-7.461937-4.2614-0.861614-7.104726-8.745383-10.599648-13.396304 0-4.029841 0-8.061477 0-12.091317 7.643235-11.883094 13.200646-26.081776 23.326406-35.204115 27.266495-24.561386 61.600021-34.468153 97.209813-39.668353 20.991073-3.064115 42.156264-4.934536 63.240678-7.34167C547.68319 0.005365 563.802554 0.005365 579.925507 0.005365zM726.933023 652.013865c2.522016-28.074259 5.607672-51.179876 6.44595-74.364475 1.247545-34.568675 0.994446-69.1912 1.186514-103.795775 0.044876-8.025576-4.193188-10.849157-12.400063-10.244232-20.037912 1.473719-40.174551 1.638862-60.199898 3.234643-41.603395 3.313624-82.212343 12.037467-121.440914 26.132037-14.627694 5.255846-27.334706 21.427265-11.02507 38.609286 10.197562 10.741455 19.827894 22.152457 30.92297 31.885106 31.517125 27.647042 67.697736 48.253978 105.553109 65.683713C684.866511 637.851083 704.983405 643.889562 726.933023 652.013865z" fill="#272636" p-id="8049"></path><path d="M2602.959449 740.930642c-23.25999-0.00718-22.64968 0.229764-31.075548 22.082451-27.036732 70.117435-45.827098 142.446347-59.262893 216.261542-1.938632 10.651704-3.33696 21.40393-5.277386 32.055634-2.241992 12.299541-7.996856 15.178768-19.095522 10.642729-32.701844-13.367583-46.051477-40.43124-51.100895-72.862035-7.689906-49.372281 3.195152-96.761055 18.350585-143.110507 13.398099-40.984109 29.174612-81.185586 43.642548-121.82505 1.346272-3.782127 2.518426-9.106184 0.904695-12.23851-19.924825-38.684677-18.815497-79.105147-8.991302-119.601008 16.941487-69.82664 56.62779-125.714878 109.87195-172.636945 2.793066-2.460985 8.027371-3.891624 11.525883-3.112581 1.874011 0.418242 3.586469 6.620068 3.460817 10.145506-1.059067 29.871083-15.94704 54.863276-28.837146 80.605792-14.277663 28.514041-28.664823 57.002951-41.730842 86.075246-3.780332 8.409712-3.622369 18.758056-4.333201 28.289662-0.253099 3.38363 2.274302 6.973689 3.532618 10.472201 2.807426-1.692713 6.275422-2.811016 8.323551-5.166094 26.038695-29.948269 51.415025-60.479923 77.877347-90.047646 31.150939-34.807414 65.103918-66.046309 109.493198-84.124049 15.194923-6.189261 27.892961-4.347561 40.811787 3.864698 22.793282 14.491272 31.809715 37.738696 36.914778 62.237257 11.911815 57.155529 5.067368 112.142662-31.046827 159.150889C2740.765645 698.158683 2680.888852 736.493329 2602.959449 740.930642zM2632.902333 642.654582c1.130868 1.114713 2.261737 2.231221 3.39081 3.34773 5.548436-0.290795 11.525883 0.665956 16.573506-1.069837 37.063765-12.750093 73.45619-26.35103 97.689086-60.460178 17.648728-24.841411 27.341887-51.847627 24.647548-82.059765-0.718012-8.045321-8.477923-15.462383-13.004987-23.168443-5.270206 3.137711-11.780777 5.194815-15.609575 9.587252-26.157167 30.011095-52.9767 59.580613-77.065994 91.207235C2654.981194 599.132301 2644.95775 621.667099 2632.902333 642.654582z" fill="#272636" p-id="8050"></path><path d="M1701.580092 716.683386c-49.079692-0.407472-95.351957-11.3033-135.474453-40.594588-21.989109-16.054742-39.070608-36.263182-35.755189-66.699699 2.457395-22.568904 16.618381-39.422434 38.515944-45.32808 63.463262-17.112014 123.864203-7.960955 181.800569 21.484706 11.515113 5.853591 13.218596 15.620345 2.943848 20.407688-15.60419 7.269869-31.908441 15.431867-48.577083 17.304083-14.992085 1.683738-31.159914-3.552363-46.306371-7.603744-21.517016-5.756659-42.23704-14.97593-63.982025-19.165528-9.709314-1.870421-22.409146 2.735625-31.373522 8.26252-12.159529 7.494247-9.738034 20.050477 3.550568 25.042454 31.698423 11.904634 64.125627 15.189538 98.096557 11.737697 39.645018-4.028046 77.898887-12.987037 115.720155-24.740889 1.136254-0.353621 2.254557-0.761092 3.385425-1.132663 9.15465-3.008469 19.321696-8.185334 18.296734-17.835411-0.937005-8.831544-6.715205-20.420254-13.950968-24.645753-15.993711-9.343128-33.67834-18.03825-51.693254-21.213656-39.452949-6.952149-79.500053-10.660679-119.38381-14.988495-22.34273-2.425085-44.922404-2.706904-67.243593-5.275591-25.864577-2.976159-39.77067-24.200585-38.237715-54.261941 1.068042-20.942607 10.364499-36.42294 26.948775-48.652475 35.387208-26.094341 75.428927-39.589372 118.409109-46.733588 62.411374-10.373474 123.842663-2.42688 185.200355 8.018396 9.689568 1.649632 23.498729 5.053008 22.454022 16.074488-1.012397 10.687605-9.879841 21.061079-16.763779 30.502933-2.084029 2.857687-9.014637 2.640488-13.789415 3.008469-44.489802 3.415941-88.983193 6.801366-133.498125 9.890612-38.458503 2.669209-76.563386 7.436806-113.693567 18.178262-3.220283 0.93162-5.778199 4.159083-8.644861 6.322093 2.732035 2.927693 5.042237 7.725806 8.27329 8.458178 14.432036 3.268748 29.057935 5.896671 43.737684 7.802992 40.824352 5.304312 81.772561 9.685978 122.543062 15.356476 19.003975 2.642283 37.823063 6.952149 56.516498 11.384076 14.071235 3.335164 24.218536 13.633248 30.515498 25.485826 20.795415 39.137024 27.607551 79.184128 2.848712 119.834362-12.466479 20.468719-32.412844 30.357536-53.351861 38.681087C1761.424575 712.251459 1731.943013 717.137528 1701.580092 716.683386z" fill="#272636" p-id="8051"></path><path d="M1935.703971 403.824136c34.872035 14.555893 53.567265 42.493729 71.810148 70.781596 26.386931 40.917693 52.565639 81.970014 78.853843 122.995409 13.293987-5.367138 14.503837-15.413917 13.453745-25.570193-5.356367-51.923018-16.537605-102.690037-30.632175-152.904187-5.284566-18.826267-9.888817-37.911019-13.457335-57.128603-2.110954-11.360741-3.08745-23.620791 9.118749-32.280012 26.934415 13.18449 43.960268 35.913152 58.349223 61.720288 24.001337 43.051983 39.377558 89.004734 46.55588 137.501041 7.058055 47.684954 6.162336 94.863709-20.8367 137.398724-6.257472 9.858301-14.914899 18.761646-24.082113 26.083571-17.980809 14.360235-33.751936 12.926006-50.433144-2.654848-28.009637-26.164347-49.691797-57.055007-67.922114-90.586155-13.17372-24.231101-26.711831-48.264748-40.133266-72.359427-1.868626-3.35491-4.010095-6.557242-6.971894-11.367921-10.585288 14.936439-9.76855 30.60166-10.409375 45.337055-1.118303 25.73354 1.2278 51.696844-1.085993 77.274217-1.888371 20.856446-7.657595 41.513643-13.322708 61.808245-2.536376 9.086438-6.900093 20.298192-19.034491 20.192285-14.41229-0.125652-25.895093-7.95557-30.292915-21.700109-4.469623-13.967123-7.566049-28.693544-8.85488-43.299697-3.638524-41.221053 5.575361-81.488946 10.341164-122.12482 4.062151-34.624321 13.863011-67.306419 28.637898-98.513004C1920.564694 423.433036 1928.884655 413.906816 1935.703971 403.824136z" fill="#272636" p-id="8052"></path><path d="M2262.060046 465.361331c-7.846073-4.151903-16.582481-8.829749-25.367354-13.410664-13.582987-7.086776-26.963135-13.886347-30.418567-31.343007-1.326527-6.704435-0.163348-10.263978 5.950522-11.805908 10.387835-2.620743 20.799005-5.512535 31.384293-6.932403 30.962461-4.153698 61.926716-9.131314 93.056115-10.987374 35.602612-2.121725 71.510378-3.022829 107.008878-0.513378 9.991133 0.705447 20.632067 14.020974 27.986302 23.800294 6.591348 8.765128 15.178768 23.773368 11.805908 30.31266-4.141133 8.032756-19.483248 13.110894-30.517293 14.239968-31.969472 3.266953-64.193838 4.256015-96.342814 5.478429-22.592239 0.859819-35.317202 11.276374-39.15677 33.70347-2.258147 13.200646 2.249172 19.458118 15.649066 19.58377 11.63538 0.109497 23.28512-1.784259 34.929476-1.796824 11.997976-0.01436 24.367523-0.454142 35.916742 2.179166 22.34632 5.096088 30.246244 32.262062 13.719409 48.08345-5.101473 4.88248-15.33673 5.79974-23.297686 6.042069-27.699097 0.841869-55.4323 0.870589-83.147553 0.62467-12.26005-0.107702-20.253316 5.937957-24.222126 16.307841-6.374149 16.650692-11.337405 33.845278-18.03107 54.272711 10.246027 0.27823 18.399051 1.891961 25.983049 0.472093 40.208657-7.528353 79.91291-18.04902 121.52169-15.132097 13.952763 0.978291 14.516402 11.804113 18.334429 20.416663 3.624164 8.178154 4.390642 16.636332-3.65109 23.046381-39.458334 31.466864-81.086859 58.842856-132.387002 66.629693-26.001 3.945474-51.470671 0.88854-75.299685-10.463226-25.062199-11.94233-31.763044-35.406953-35.252581-60.280675-3.898804-27.792439 8.170973-51.664534 19.468888-75.525859 6.717-14.187912 8.54434-27.738588 1.500645-42.481164-5.234305-10.951474 3.078475-25.683279 15.435457-27.191104 13.990459-1.705278 21.109545-9.269531 24.870131-22.177587C2252.706149 489.464985 2257.197312 478.782765 2262.060046 465.361331z" fill="#272636" p-id="8053"></path><path d="M1338.442071 300.105547c2.337128-14.667185 0.967521-26.912875-13.317323-36.667064-6.287988-4.291915-8.447408-16.776344-9.687773-25.920223-4.182418-30.827834 8.738203-57.160914 27.404713-79.60596 47.223631-56.785752 108.818267-82.445697 182.538326-77.925813 22.595829 1.385763 42.197549 11.292529 60.189128 24.818075 5.105063 3.837773 11.199188 7.104726 17.339983 8.693327 22.626345 5.84641 42.030611 15.518028 50.079523 39.395508 6.194646 18.375715 5.20379 36.573722-4.995567 53.387762-30.472418 50.237486-75.603045 82.874709-128.710782 105.438227-39.422434 16.749419-79.90573 19.217584-121.202175 7.167552-2.380209-0.694676-6.176696 0.210018-8.100967 1.82016-5.22174 4.369101-9.78291 9.528016-14.622309 14.35844-12.847025 12.821894-27.650632 9.693158-32.999819-7.795812C1339.709362 318.621274 1339.662691 309.184805 1338.442071 300.105547zM1458.184887 266.208213c0.236944 1.071633 0.473888 2.14147 0.710832 3.214898 23.636946-5.115834 47.830351-8.486899 70.774416-15.780103 29.71312-9.447239 55.213307-26.781837 75.181213-51.242702 12.190044-14.931054 11.263809-34.364041-5.000952-43.603057-8.86565-5.036852-22.457612-4.248834-33.401906-2.622538-26.221788 3.897009-49.57153 15.990121-69.352753 33.170347-21.7396 18.881913-41.870854 39.637837-62.283927 59.99706-2.958208 2.951028-3.579288 8.246365-5.280976 12.455708 4.324226 1.468334 8.55152 3.595444 12.994217 4.236269C1447.644475 266.777238 1452.955966 266.208213 1458.184887 266.208213zM1448.387617 148.533271c-0.531329-0.911875-1.062657-1.821955-1.593986-2.732035-28.950233 5.945137-56.04979 14.98311-74.289083 41.405941-9.19414 13.319118-16.040382 26.469502-8.582035 44.687255C1392.678882 203.513224 1420.534147 176.02235 1448.387617 148.533271z" fill="#272636" p-id="8054"></path><path d="M1397.223896 588.329815c2.491501-42.520654 4.011891-85.129265 7.878384-127.524268 1.944017-21.324948 7.427831-42.441673 12.672907-63.310684 3.633139-14.453576 14.71924-17.499741 27.420868-9.395183 12.394677 7.907104 18.508547 19.511969 19.682496 33.733986 3.37286 40.826147 7.531943 81.628958 9.398774 122.530496 2.180961 47.790861 2.545352 95.671473 3.139506 143.521569 0.251304 20.246136-8.669992 29.648499-28.548146 32.570807-23.775163 3.494922-38.052827-4.536039-43.856156-27.914501-4.114207-16.580686-5.690243-33.95298-6.769056-51.075764-1.111123-17.634368-0.245919-35.390798-0.245919-53.095172C1397.740864 588.35674 1397.48238 588.344175 1397.223896 588.329815z" fill="#272636" p-id="8055"></path></svg>