<?xml version="1.0" standalone="no"?><!DOCTYPE svg PUBLIC "-//W3C//DTD SVG 1.1//EN" "http://www.w3.org/Graphics/SVG/1.1/DTD/svg11.dtd"><svg t="1764210946901" class="icon" viewBox="0 0 1024 1024" version="1.1" xmlns="http://www.w3.org/2000/svg" p-id="10301" xmlns:xlink="http://www.w3.org/1999/xlink" width="200" height="200"><path d="M20.48 458.752c0 40.96 32.768 73.728 69.632 73.728v65.536c0 20.48 12.288 40.96 32.768 49.152 16.384 8.192 40.96 4.096 57.344-8.192L294.912 532.48h225.28c40.96 0 73.728-32.768 73.728-73.728V159.744c0-40.96-32.768-73.728-73.728-73.728H94.208c-40.96 0-73.728 32.768-73.728 73.728v299.008z" p-id="10302"></path><path d="M1003.52 712.704v-368.64c0-45.056-36.864-81.92-81.92-81.92h-245.76v262.144c0 53.248-40.96 94.208-94.208 94.208H327.68l-12.288 8.192v86.016c0 45.056 36.864 81.92 81.92 81.92h278.528l143.36 131.072c16.384 16.384 40.96 20.48 61.44 12.288s32.768-28.672 32.768-49.152v-90.112h4.096c49.152-4.096 86.016-40.96 86.016-86.016z" p-id="10303"></path></svg>