<?xml version="1.0" standalone="no"?><!DOCTYPE svg PUBLIC "-//W3C//DTD SVG 1.1//EN" "http://www.w3.org/Graphics/SVG/1.1/DTD/svg11.dtd"><svg t="1764211892479" class="icon" viewBox="0 0 1592 1024" version="1.1" xmlns="http://www.w3.org/2000/svg" p-id="2710" xmlns:xlink="http://www.w3.org/1999/xlink" width="310.9375" height="200"><path d="M45.511111 0h1501.866667c25.031111 0 45.511111 20.48 45.511111 45.511111v932.977778c0 25.031111-20.48 45.511111-45.511111 45.511111H45.511111c-25.031111 0-45.511111-20.48-45.511111-45.511111V45.511111c0-25.031111 20.48-45.511111 45.511111-45.511111z" fill="#E6F2F9" p-id="2711"></path><path d="M227.555556 320.853333h50.062222c21.617778 0 37.546667 3.413333 48.924444 9.102223s17.066667 17.066667 17.066667 31.857777c0 9.102222-2.275556 17.066667-6.826667 23.893334-4.551111 6.826667-10.24 10.24-18.204444 11.377777v1.137778c5.688889 1.137778 10.24 3.413333 14.791111 5.688889s7.964444 6.826667 10.24 11.377778 3.413333 12.515556 3.413333 20.48c0 14.791111-5.688889 26.168889-15.928889 34.133333-10.24 7.964444-25.031111 12.515556-43.235555 12.515556H227.555556V320.853333z m34.133333 64.853334h20.48c10.24 0 17.066667-1.137778 20.48-4.551111 3.413333-3.413333 5.688889-7.964444 5.688889-13.653334s-2.275556-10.24-6.826667-13.653333-11.377778-4.551111-21.617778-4.551111H261.688889v36.408889z m0 27.306666V455.111111h22.755555c10.24 0 17.066667-2.275556 21.617778-5.688889 4.551111-4.551111 5.688889-9.102222 5.688889-15.928889 0-5.688889-2.275556-11.377778-6.826667-14.791111-4.551111-3.413333-11.377778-5.688889-22.755555-5.688889H261.688889zM513.137778 320.853333v104.675556c0 11.377778-2.275556 21.617778-7.964445 30.72-4.551111 9.102222-12.515556 15.928889-22.755555 21.617778-10.24 5.688889-22.755556 7.964444-37.546667 7.964444-21.617778 0-37.546667-5.688889-48.924444-15.928889-11.377778-11.377778-17.066667-26.168889-17.066667-43.235555v-104.675556h34.133333V420.977778c0 13.653333 2.275556 22.755556 7.964445 28.444444s13.653333 7.964444 23.893333 7.964445c11.377778 0 19.342222-3.413333 23.893333-9.102223 5.688889-5.688889 7.964444-14.791111 7.964445-27.306666v-98.986667h36.408889zM603.022222 387.982222l34.133334-67.128889h37.546666l-53.475555 98.986667v63.715556h-34.133334V420.977778l-53.475555-100.124445H568.888889l34.133333 67.128889zM909.084444 483.555556h-43.235555l-70.542222-122.88h-1.137778c0 7.964444 1.137778 15.928889 1.137778 22.755555 0 7.964444 1.137778 15.928889 1.137777 22.755556v76.231111h-30.72V320.853333h43.235556l70.542222 121.742223h1.137778c0-7.964444 0-14.791111-1.137778-22.755556 0-7.964444-1.137778-14.791111-1.137778-22.755556v-77.368888h30.72v163.84zM1097.955556 401.635556c0 17.066667-2.275556 31.857778-7.964445 44.373333-5.688889 12.515556-13.653333 21.617778-25.031111 29.582222s-26.168889 10.24-43.235556 10.24-31.857778-3.413333-43.235555-10.24c-11.377778-6.826667-19.342222-17.066667-25.031111-29.582222-5.688889-12.515556-7.964444-27.306667-7.964445-44.373333s2.275556-31.857778 7.964445-44.373334c5.688889-12.515556 13.653333-21.617778 25.031111-28.444444 11.377778-6.826667 26.168889-10.24 44.373333-10.24 17.066667 0 31.857778 3.413333 43.235556 10.24 11.377778 6.826667 19.342222 17.066667 25.031111 29.582222 4.551111 12.515556 6.826667 27.306667 6.826667 43.235556z m-118.328889 0c0 17.066667 3.413333 30.72 10.24 39.822222 6.826667 10.24 17.066667 14.791111 31.857777 14.791111 14.791111 0 25.031111-4.551111 31.857778-14.791111 6.826667-10.24 9.102222-22.755556 9.102222-39.822222s-3.413333-30.72-9.102222-39.822223c-6.826667-10.24-17.066667-14.791111-31.857778-14.791111-14.791111 0-25.031111 4.551111-31.857777 14.791111-6.826667 10.24-10.24 22.755556-10.24 39.822223zM1328.924444 320.853333l-40.96 162.702223h-38.684444l-21.617778-85.333334c0-1.137778-1.137778-4.551111-2.275555-7.964444-1.137778-3.413333-1.137778-6.826667-2.275556-11.377778-1.137778-3.413333-1.137778-7.964444-2.275555-11.377778-1.137778-3.413333-1.137778-6.826667-1.137778-7.964444 0 2.275556-1.137778 4.551111-1.137778 7.964444-1.137778 3.413333-1.137778 6.826667-2.275556 11.377778-1.137778 3.413333-1.137778 7.964444-2.275555 11.377778-1.137778 3.413333-1.137778 5.688889-2.275556 7.964444l-21.617777 85.333334h-38.684445l-40.96-162.702223h34.133333l20.48 88.746667c1.137778 3.413333 2.275556 7.964444 3.413334 13.653333 1.137778 5.688889 2.275556 10.24 3.413333 15.928889 1.137778 5.688889 1.137778 10.24 2.275556 13.653334 0-3.413333 1.137778-7.964444 2.275555-13.653334s2.275556-10.24 2.275556-14.791111c1.137778-4.551111 2.275556-9.102222 2.275555-11.377778l23.893334-91.022222h32.995555l23.893334 91.022222c1.137778 2.275556 1.137778 6.826667 2.275555 11.377778s2.275556 10.24 3.413333 15.928889c1.137778 5.688889 1.137778 10.24 2.275556 13.653333 0-3.413333 1.137778-7.964444 2.275556-13.653333s2.275556-10.24 3.413333-15.928889c1.137778-5.688889 2.275556-10.24 3.413333-13.653333l20.48-88.746667h29.582222zM279.893333 559.786667c20.48 0 36.408889 4.551111 45.511111 13.653333 10.24 9.102222 14.791111 21.617778 14.791112 37.546667 0 9.102222-2.275556 18.204444-5.688889 26.168889-3.413333 7.964444-10.24 14.791111-19.342223 19.342222-9.102222 4.551111-21.617778 7.964444-37.546666 7.964444H261.688889v58.026667h-34.133333V559.786667h52.337777z m-2.275555 28.444444H261.688889v47.786667h11.377778c10.24 0 17.066667-2.275556 22.755555-5.688889s9.102222-10.24 9.102222-19.342222c0-14.791111-9.102222-22.755556-27.306666-22.755556zM458.524444 722.488889l-11.377777-38.684445h-59.164445l-11.377778 38.684445h-37.546666l56.888889-162.702222h42.097777l58.026667 162.702222h-37.546667z m-20.48-67.128889l-11.377777-37.546667c-1.137778-2.275556-2.275556-5.688889-3.413334-10.24-1.137778-3.413333-2.275556-7.964444-3.413333-12.515555-1.137778-4.551111-2.275556-7.964444-3.413333-10.24-1.137778 3.413333-2.275556 6.826667-3.413334 11.377778-1.137778 4.551111-2.275556 9.102222-3.413333 12.515555-1.137778 3.413333-2.275556 6.826667-2.275556 7.964445l-11.377777 37.546666h42.097777zM552.96 626.915556l34.133333-67.128889h37.546667l-53.475556 98.986666v63.715556h-34.133333V659.911111l-53.475555-100.124444h37.546666l31.857778 67.128889zM715.662222 722.488889V559.786667h34.133334V694.044444h65.991111v28.444445h-100.124445zM944.355556 722.488889l-11.377778-38.684445h-59.164445l-11.377777 38.684445h-37.546667l56.888889-162.702222h42.097778l58.026666 162.702222H944.355556z m-20.48-67.128889l-11.377778-37.546667c-1.137778-2.275556-2.275556-5.688889-3.413334-10.24-1.137778-3.413333-2.275556-7.964444-3.413333-12.515555-1.137778-4.551111-2.275556-7.964444-3.413333-10.24-1.137778 3.413333-2.275556 6.826667-3.413334 11.377778-1.137778 4.551111-2.275556 9.102222-3.413333 12.515555-1.137778 3.413333-2.275556 6.826667-2.275555 7.964445l-11.377778 37.546666h42.097778zM1047.893333 722.488889h-34.133333V588.231111h-44.373333v-28.444444H1092.266667v28.444444h-44.373334v134.257778zM1210.595556 722.488889h-93.297778V559.786667h93.297778v28.444444h-59.164445v35.271111h54.613333v28.444445h-54.613333V694.044444h59.164445v28.444445zM1292.515556 559.786667c21.617778 0 38.684444 4.551111 48.924444 12.515555 10.24 7.964444 15.928889 20.48 15.928889 36.408889 0 7.964444-1.137778 13.653333-4.551111 19.342222-2.275556 5.688889-6.826667 10.24-11.377778 13.653334-4.551111 3.413333-9.102222 6.826667-14.791111 9.102222l47.786667 70.542222h-38.684445L1297.066667 659.911111h-18.204445v62.577778h-34.133333V559.786667h47.786667z m-3.413334 28.444444h-10.24v44.373333h11.377778c11.377778 0 19.342222-2.275556 23.893333-5.688888 4.551111-3.413333 7.964444-9.102222 7.964445-17.066667s-2.275556-13.653333-7.964445-15.928889c-5.688889-4.551111-13.653333-5.688889-25.031111-5.688889z" fill="#017ABC" p-id="2712"></path></svg>