<?xml version="1.0" standalone="no"?><!DOCTYPE svg PUBLIC "-//W3C//DTD SVG 1.1//EN" "http://www.w3.org/Graphics/SVG/1.1/DTD/svg11.dtd"><svg t="1764212003775" class="icon" viewBox="0 0 4278 1024" version="1.1" xmlns="http://www.w3.org/2000/svg" p-id="4659" xmlns:xlink="http://www.w3.org/1999/xlink" width="835.546875" height="200"><path d="M2025.244444 352.711111h-819.2a45.511111 45.511111 0 0 0-45.511111 45.511111v477.866667a45.511111 45.511111 0 0 0 45.511111 45.511111h819.2a45.511111 45.511111 0 0 0 45.511112-45.511111V398.222222a45.511111 45.511111 0 0 0-45.511112-45.511111z" fill="#DDDDDD" p-id="4660"></path><path d="M2025.244444 364.088889h-819.2a34.133333 34.133333 0 0 0-34.133333 34.133333v477.866667a34.133333 34.133333 0 0 0 34.133333 34.133333h819.2a34.133333 34.133333 0 0 0 34.133334-34.133333V398.222222a34.133333 34.133333 0 0 0-34.133334-34.133333z" fill="#FFFFFF" p-id="4661"></path><path d="M1402.743467 848.190578V812.828444a22.789689 22.789689 0 0 0-1.171911-8.760888 21.321956 21.321956 0 0 0-4.414578-7.441067 19.410489 19.410489 0 0 0-6.872178-4.835556 18.204444 18.204444 0 0 0-8.112356-1.365333 18.989511 18.989511 0 0 0-10.456177 2.309689c-3.231289 1.763556-5.973333 4.437333-7.918934 7.714133a19.911111 19.911111 0 0 0-7.361422-7.566222 18.090667 18.090667 0 0 0-9.921422-2.446222 16.236089 16.236089 0 0 0-8.692622 1.991111 17.749333 17.749333 0 0 0-6.621867 6.371555v-6.951822h-11.377778v56.342756h11.480178v-31.004445a14.381511 14.381511 0 0 1 0.455111-5.7344c0.546133-1.854578 1.456356-3.561244 2.673778-4.994844 1.2288-1.4336 2.730667-2.548622 4.4032-3.288178 1.672533-0.728178 3.470222-1.058133 5.267911-0.944355 7.554844 0 11.377778 5.302044 11.377778 14.848v31.357155h11.491555v-31.243378a14.1312 14.1312 0 0 1 0.466489-5.723022c0.546133-1.854578 1.456356-3.549867 2.685156-4.983467 1.217422-1.422222 2.707911-2.548622 4.380444-3.288177a11.491556 11.491556 0 0 1 5.267911-0.967111c7.759644 0 11.480178 5.302044 11.480178 14.848v31.357155l11.491556-0.238933z m169.927111-56.342756h-18.705067v-17.089422h-11.480178v17.089422h-10.399289v11.195734h10.615467v25.941333c0 13.084444 4.699022 20.855467 18.158933 20.855467 5.028978 0.022756 9.955556-1.490489 14.222223-4.357689l-3.288178-10.490311a19.899733 19.899733 0 0 1-10.057956 3.185777c-5.472711 0-7.554844-3.777422-7.554844-9.443555V803.043556h18.602667l-0.113778-11.195734z m97.029689-1.410844a14.518044 14.518044 0 0 0-7.941689 2.082133 15.985778 15.985778 0 0 0-5.8368 6.166756v-6.838045h-11.275378v56.342756h11.377778v-31.584711c0-9.3184 3.720533-14.506667 10.945422-14.506667 2.423467-0.034133 4.846933 0.455111 7.099733 1.422222l3.504356-11.787378a22.755556 22.755556 0 0 0-8.0896-1.536l0.216178 0.227556z m-146.693689 5.893689a36.909511 36.909511 0 0 0-21.321956-5.893689c-13.243733 0-21.879467 6.826667-21.879466 18.033778 0 9.193244 6.337422 14.848 18.045155 16.611555l5.472711 0.830578c6.235022 0.944356 9.181867 2.707911 9.181867 5.893689 0 4.357689-4.152889 6.826667-11.923911 6.826666a26.464711 26.464711 0 0 1-17.385245-5.882311l-5.472711 9.545956a35.84 35.84 0 0 0 22.641778 7.304533c15.098311 0 23.847822-7.657244 23.847822-18.386489 0-10.729244-6.894933-15.086933-18.261333-16.850489l-5.472711-0.830577c-4.926578-0.705422-8.863289-1.763556-8.863289-5.540978 0-3.766044 3.720533-6.599111 9.955555-6.599111a31.869156 31.869156 0 0 1 16.406756 4.835555l5.028978-9.898666z m304.708266-5.893689a14.586311 14.586311 0 0 0-7.953066 2.082133c-2.423467 1.444978-4.437333 3.584-5.8368 6.166756v-6.838045h-11.264v56.342756h11.377778v-31.584711c0-9.3184 3.720533-14.506667 10.934044-14.506667 2.434844-0.034133 4.846933 0.455111 7.111111 1.422222l3.504356-11.787378a22.823822 22.823822 0 0 0-8.100978-1.536l0.227555 0.227556z m-146.579911 29.468444c-0.136533 3.959467 0.489244 7.896178 1.854578 11.582578 1.365333 3.675022 3.424711 7.008711 6.0416 9.784889 2.628267 2.776178 5.768533 4.926578 9.204622 6.326044 3.447467 1.388089 7.122489 1.991111 10.786134 1.774934a26.089244 26.089244 0 0 0 18.818844-6.724267l-5.472711-9.898667c-3.925333 3.231289-8.726756 5.006222-13.676089 5.063111a16.349867 16.349867 0 0 1-10.979555-5.768533 18.852978 18.852978 0 0 1-4.448712-12.265244c0-4.551111 1.581511-8.920178 4.448712-12.265245 2.855822-3.345067 6.781156-5.404444 10.979555-5.768533 4.949333 0.056889 9.750756 1.8432 13.676089 5.074489l5.472711-9.898667a26.077867 26.077867 0 0 0-18.818844-6.724267 24.735289 24.735289 0 0 0-10.786134 1.774934 26.350933 26.350933 0 0 0-9.204622 6.314666 28.899556 28.899556 0 0 0-6.0416 9.784889c-1.365333 3.6864-1.991111 7.623111-1.854578 11.593956v0.227555z m106.541511 0v-28.0576h-11.377777v6.826667a20.184178 20.184178 0 0 0-7.281778-6.257778 18.648178 18.648178 0 0 0-9.124978-1.979733 26.396444 26.396444 0 0 0-19.342222 8.624355 30.651733 30.651733 0 0 0-8.009956 20.844089c0 7.816533 2.878578 15.303111 8.009956 20.832711a26.396444 26.396444 0 0 0 19.342222 8.624356c3.140267 0.125156 6.269156-0.546133 9.124978-1.991111 2.855822-1.4336 5.347556-3.572622 7.281778-6.257778v6.838044h11.377777v-28.046222z m-42.336711 0a17.863111 17.863111 0 0 1 3.106134-9.170489c1.831822-2.6624 4.357689-4.687644 7.259022-5.8368 2.889956-1.137778 6.0416-1.3312 9.033955-0.568889 3.003733 0.750933 5.7344 2.446222 7.850667 4.858312 2.127644 2.412089 3.549867 5.438578 4.084622 8.704 0.546133 3.2768 0.193422 6.644622-1.012622 9.693866a16.907378 16.907378 0 0 1-5.791289 7.509334 15.030044 15.030044 0 0 1-20.263822-2.434845 17.066667 17.066667 0 0 1-3.367822-5.905067 18.170311 18.170311 0 0 1-0.898845-6.849422z m-137.284266-29.468444a26.430578 26.430578 0 0 0-19.217067 8.920178 30.754133 30.754133 0 0 0-7.748267 20.957866 30.606222 30.606222 0 0 0 8.283023 20.707556 26.328178 26.328178 0 0 0 19.456 8.339911 30.3104 30.3104 0 0 0 21.7088-7.657245l-5.472712-9.068088c-4.312178 3.731911-9.671111 5.802667-15.200711 5.882311a13.789867 13.789867 0 0 1-10.422044-3.470223 15.985778 15.985778 0 0 1-5.2224-10.319644h38.832355v-4.7104c0-17.681067-10.171733-29.468444-24.826311-29.468444l-0.170666-0.113778z m0 10.9568c1.706667-0.034133 3.401956 0.284444 4.983466 0.955733 1.592889 0.659911 3.037867 1.661156 4.266667 2.924089 1.2288 1.274311 2.218667 2.787556 2.901333 4.471467 0.682667 1.683911 1.058133 3.492978 1.092267 5.3248h-27.352178a15.018667 15.018667 0 0 1 4.357689-9.898667c2.594133-2.548622 6.018844-3.902578 9.534578-3.777422h0.216178z m285.013333 18.625422v-50.801778h-10.934044v29.468445a20.184178 20.184178 0 0 0-7.281778-6.257778 18.648178 18.648178 0 0 0-9.124978-1.991111 26.396444 26.396444 0 0 0-19.342222 8.624355 30.651733 30.651733 0 0 0-8.009956 20.844089c0 7.816533 2.878578 15.303111 8.009956 20.832711a26.396444 26.396444 0 0 0 19.342222 8.624356c3.140267 0.125156 6.269156-0.546133 9.124978-1.991111 2.855822-1.4336 5.347556-3.572622 7.281778-6.257778v6.838044h10.934044v-27.932444z m18.978133 19.979378a5.12 5.12 0 0 1 3.777423 1.592889 6.087111 6.087111 0 0 1 1.149155 1.763555 5.916444 5.916444 0 0 1 0 4.357689 5.438578 5.438578 0 0 1-4.926578 3.413333 5.211022 5.211022 0 0 1-2.924089-0.932977 5.905067 5.905067 0 0 1-2.002488-2.480356 5.916444 5.916444 0 0 1 1.149155-6.121244 5.165511 5.165511 0 0 1 3.948089-1.592889h-0.170667z m0 9.955555a3.675022 3.675022 0 0 0 2.844445-1.297066 4.562489 4.562489 0 0 0 0-5.893689 3.754667 3.754667 0 0 0-4.425956-0.944356 4.050489 4.050489 0 0 0-1.319822 0.944356 4.551111 4.551111 0 0 0-1.058133 2.958222 4.551111 4.551111 0 0 0 1.058133 2.935467 4.084622 4.084622 0 0 0 3.072 1.297066h-0.170667z m0.329956-7.008711a2.082133 2.082133 0 0 1 1.422222 0.466489 1.490489 1.490489 0 0 1 0.489245 1.251556 1.410844 1.410844 0 0 1-0.091023 0.568889 1.3312 1.3312 0 0 1-0.284444 0.477866 1.865956 1.865956 0 0 1-1.149156 0.534756l1.581511 1.934222h-1.262933l-1.467733-1.934222h-0.500622v1.934222h-1.035378v-5.176889l2.298311-0.056889z m-1.206045 1.001245v1.410844h1.206045a1.069511 1.069511 0 0 0 0.659911 0 0.694044 0.694044 0 0 0 0.056889-0.261689 0.694044 0.694044 0 0 0-0.056889-0.261689 0.694044 0.694044 0 0 0 0.056889-0.273066 0.694044 0.694044 0 0 0-0.056889-0.261689 1.069511 1.069511 0 0 0-0.659911 0l-1.206045-0.352711z m-60.165688-23.927467a17.863111 17.863111 0 0 1 3.106133-9.170489c1.8432-2.6624 4.369067-4.687644 7.259022-5.825422 2.901333-1.137778 6.0416-1.342578 9.045333-0.580267 2.992356 0.762311 5.723022 2.446222 7.850667 4.858311 2.116267 2.412089 3.538489 5.438578 4.084622 8.715378 0.546133 3.265422 0.182044 6.633244-1.024 9.693867a16.748089 16.748089 0 0 1-5.791289 7.509333 15.041422 15.041422 0 0 1-20.252444-2.446222 17.260089 17.260089 0 0 1-3.3792-5.893689 18.397867 18.397867 0 0 1-0.898844-6.8608z m-384.113778 0v-28.171378h-11.377778v6.826667a20.138667 20.138667 0 0 0-7.2704-6.257778 18.659556 18.659556 0 0 0-9.136356-1.979733c-7.247644 0-14.210844 3.106133-19.330844 8.624355a30.651733 30.651733 0 0 0-8.009956 20.844089c0 7.816533 2.878578 15.303111 8.009956 20.832711 5.12 5.5296 12.0832 8.624356 19.330844 8.624356a18.659556 18.659556 0 0 0 9.136356-1.991111c2.844444-1.4336 5.347556-3.572622 7.2704-6.257778v6.838044h11.377778v-27.932444z m-42.325334 0c0.182044-3.310933 1.251556-6.508089 3.094756-9.170489 1.8432-2.6624 4.369067-4.687644 7.259022-5.825422 2.901333-1.137778 6.0416-1.342578 9.045334-0.580267s5.723022 2.446222 7.850666 4.858311c2.116267 2.412089 3.538489 5.438578 4.084622 8.715378 0.546133 3.265422 0.182044 6.633244-1.024 9.693867a16.748089 16.748089 0 0 1-5.791288 7.509333c-2.571378 1.820444-5.575111 2.821689-8.658489 2.833067a14.7456 14.7456 0 0 1-6.3488-1.297067 15.792356 15.792356 0 0 1-5.3248-3.936711 17.863111 17.863111 0 0 1-4.3008-12.8h0.113777z" fill="#231F20" p-id="4662"></path><path d="M1686.391467 455.566222H1544.874667v254.338845h141.5168V455.566222z" fill="#FF5F00" p-id="4663"></path><path d="M1553.863111 582.7584a161.302756 161.302756 0 0 1 16.224711-70.712889 161.336889 161.336889 0 0 1 45.545245-56.479289 161.746489 161.746489 0 0 0-237.044623 212.969245 161.746489 161.746489 0 0 0 237.044623 41.3696 161.507556 161.507556 0 0 1-61.769956-127.146667z" fill="#EB001B" p-id="4664"></path><path d="M1877.333333 582.7584a161.757867 161.757867 0 0 1-261.700266 127.146667 161.826133 161.826133 0 0 0 61.792711-127.169423 161.712356 161.712356 0 0 0-61.792711-127.169422A161.723733 161.723733 0 0 1 1877.333333 582.712889v0.045511zM1861.882311 682.939733v-5.211022h2.104889v-1.069511h-5.347556v1.069511h2.298312v5.211022h0.944355z m10.376533 0v-6.280533h-1.615644l-1.888711 4.482844-1.888711-4.482844h-1.4336v6.280533h1.160533v-4.7104l1.752178 4.096h1.217422l1.752178-4.096v4.755911l0.944355-0.045511z" fill="#F79E1B" p-id="4665"></path><path d="M3072 352.711111h-819.2a45.511111 45.511111 0 0 0-45.511111 45.511111v477.866667a45.511111 45.511111 0 0 0 45.511111 45.511111h819.2a45.511111 45.511111 0 0 0 45.511111-45.511111V398.222222a45.511111 45.511111 0 0 0-45.511111-45.511111z" fill="#DDDDDD" p-id="4666"></path><path d="M3072 364.088889h-819.2a34.133333 34.133333 0 0 0-34.133333 34.133333v477.866667a34.133333 34.133333 0 0 0 34.133333 34.133333h819.2a34.133333 34.133333 0 0 0 34.133333-34.133333V398.222222a34.133333 34.133333 0 0 0-34.133333-34.133333z" fill="#016FD0" p-id="4667"></path><path d="M2873.594311 523.832889l-17.169067 37.853867h34.429156l-17.260089-37.853867z m-198.144 23.460978c3.231289-1.536 5.142756-4.881067 5.142756-9.033956 0-4.061867-2.002489-7.008711-5.245156-8.3968-2.946844-1.536-7.486578-1.706667-11.832889-1.706667h-30.72v21.0944h30.3104c4.858311 0 8.9088-0.068267 12.344889-1.956977z m-393.648355-23.460978l-16.975645 37.853867h34.053689l-17.078044-37.853867z m790.4256 242.505955h-48.173512v-20.366222h47.980089c4.755911 0 8.0896-0.568889 10.092089-2.3552a8.032711 8.032711 0 0 0 2.958222-6.189511 7.520711 7.520711 0 0 0-3.049244-6.280533c-1.809067-1.456356-4.448711-2.116267-8.795022-2.116267-23.426844-0.7168-52.644978 0.659911-52.644978-29.3888 0-13.778489 9.614222-28.273778 35.794489-28.273778h49.698133v-18.898489h-46.171022c-13.937778 0-24.064 3.026489-31.232 7.759645v-7.759645h-68.289422c-10.922667 0-23.745422 2.4576-29.7984 7.759645v-7.759645h-121.969778v7.759645c-9.693867-6.371556-26.077867-7.759644-33.632711-7.759645h-80.440889v7.759645c-7.68-6.769778-24.758044-7.759644-35.168711-7.759645h-90.032356l-20.593777 20.2752-19.296712-20.2752h-134.485333v132.528356h131.948089l21.230933-20.605156 19.990756 20.605156 81.339733 0.068267v-31.175111h7.998578c10.786133 0.159289 23.517867-0.238933 34.747733-4.664889v35.771733h67.083378v-34.542933h3.242667c4.118756 0 4.528356 0.159289 4.528355 3.913955v30.6176h203.810134c12.936533 0 26.464711-3.003733 33.951289-8.476444v8.476444h64.648533c13.448533 0 26.589867-1.706667 36.579555-6.098489v-24.689777c-6.052978 8.055467-17.863111 12.140089-33.848888 12.140088z m-413.673245-31.288888h-31.140978v31.857777h-48.480711l-30.72-31.448177-31.926044 31.4368h-98.827378v-94.970312h100.340622l30.697245 31.1296 31.732622-31.1296h79.724089c19.797333 0 42.040889 4.983467 42.040889 31.288889 0 26.385067-21.640533 31.823644-43.440356 31.823645z m149.686045-4.323556c3.527111 4.642133 4.027733 8.977067 4.130133 17.351111v18.818845h-25.042489V755.029333c0-5.711644 0.603022-14.176711-4.039111-18.591289-3.640889-3.401956-9.193244-4.209778-18.306845-4.209777h-26.658133v34.679466h-25.065244v-94.970311h57.594311c12.640711 0 21.833956 0.512 30.025955 4.482845 7.873422 4.323556 12.822756 10.251378 12.822756 21.083022 0 15.166578-11.116089 22.892089-17.681067 25.270044 5.552356 1.865956 10.092089 5.211022 12.219734 7.964445z m103.059911-39.162311h-58.424889V708.835556h56.991289v19.376355h-56.991289v18.887111l58.424889 0.091022v19.706312h-83.273956v-94.970312h83.273956v19.638045z m64.1024 75.332267h-48.594489v-20.366223h48.401066c4.733156 0 8.0896-0.568889 10.194489-2.3552a8.123733 8.123733 0 0 0 2.946845-6.189511 7.8848 7.8848 0 0 0-3.049245-6.280533c-1.911467-1.444978-4.539733-2.104889-8.886044-2.104889-23.324444-0.728178-52.542578 0.648533-52.542578-29.400178 0-13.767111 9.511822-28.273778 35.669333-28.273778h50.016712v20.206934h-45.7728c-4.528356 0-7.486578 0.159289-9.989689 1.718044-2.742044 1.547378-3.754667 3.822933-3.754667 6.826667 0 3.595378 2.321067 6.030222 5.461333 7.088355 2.639644 0.830578 5.461333 1.069511 9.705245 1.069512l13.437155 0.341333c13.539556 0.284444 22.8352 2.423467 28.489956 7.623111 4.858311 4.573867 7.463822 10.353778 7.463822 20.127289 0 20.434489-14.040178 29.969067-39.196444 29.969067z m-193.490489-73.796267c-3.015111-1.627022-7.463822-1.718044-11.901156-1.718045h-30.731378v21.333334h30.3104c4.858311 0 8.988444-0.159289 12.322134-1.956978 3.231289-1.786311 5.165511-5.051733 5.165511-9.124978 0-4.061867-1.934222-6.997333-5.165511-8.533333z m278.744178-1.718045c-4.539733 0-7.554844 0.159289-10.092089 1.706667-2.639644 1.547378-3.640889 3.822933-3.640889 6.838045 0 3.584 2.218667 6.030222 5.449955 7.076977 2.639644 0.830578 5.461333 1.080889 9.614223 1.080889l13.528177 0.318578c13.641956 0.3072 22.744178 2.446222 28.307911 7.657244 1.012622 0.7168 1.615644 1.524622 2.309689 2.343823v-27.022223h-45.476977z m-401.248712 0h-32.529066v24.189156h32.244622c9.580089 0 15.542044-4.323556 15.553422-12.549689-0.011378-8.305778-6.257778-11.639467-15.268978-11.639467z m-217.099377 0v17.260089h54.772622v19.387734h-54.772622v18.887111h61.3376l28.501333-27.864178-27.295289-27.670756h-62.543644z m160.164977 66.412089v-76.140089l-38.2976 37.455645 38.2976 38.684444zM2444.401778 605.309156v16.361244h208.429511l-0.091022-34.622578h4.027733c2.833067 0.091022 3.652267 0.329956 3.652267 4.573867v30.048711h107.804444v-8.055467c8.692622 4.232533 22.2208 8.055467 40.015645 8.055467h45.351822l9.705244-21.083022h21.515378l9.500444 21.083022h87.392712v-20.024889l13.232355 20.024889h70.030222V489.244444h-69.302044v15.644445L2985.961244 489.244444h-71.122488v15.644445L2905.929956 489.244444h-96.073956c-16.088178 0-30.219378 2.048-41.631289 7.736889V489.244444h-66.298311v7.736889c-7.2704-5.870933-17.169067-7.736889-28.171378-7.736889H2431.544889l-16.247467 34.2016L2398.606222 489.244444h-76.288v15.644445L2313.944178 489.244444h-65.069511L2218.666667 552.209067v50.369422l44.680533-94.958933h37.0688l42.427733 89.9072v-89.9072h40.721067l32.642844 64.420977 29.991823-64.420977h41.540266v94.958933h-25.565866l-0.1024-74.365156-36.169956 74.365156h-21.902222l-36.272356-74.433422v74.433422h-50.744889l-9.591466-21.185422h-51.939556l-9.693866 21.185422H2218.666667v19.103289h42.632533l9.602844-21.0944h21.526756l9.580089 21.0944h83.876978v-16.133689l7.486577 16.201955h43.531378l7.497956-16.440888z m328.453689-86.619023c8.055467-7.5776 20.6848-11.070578 37.888-11.070577h24.143644v20.343466h-23.643022c-9.102222 0-14.244978 1.2288-19.194311 5.632-4.255289 3.982222-7.179378 11.548444-7.179378 21.504 0 10.171733 2.230044 17.5104 6.8608 22.300445 3.845689 3.754667 10.831644 4.892444 17.396622 4.892444h11.207111l35.157334-74.672355h37.376l42.245689 89.816177v-89.816177h37.9904l43.849955 66.127644v-66.127644h25.554489v94.958933h-35.350756l-47.297422-71.2704v71.2704h-50.801778l-9.705244-21.185422h-51.837156l-9.409422 21.185422h-29.195378c-12.128711 0-27.488711-2.446222-36.181333-10.513067-8.772267-8.055467-13.323378-18.978133-13.323378-36.238222-0.011378-14.085689 2.719289-26.965333 13.448534-37.137067z m-51.325156-11.070577h25.463467v94.958933h-25.463467v-94.958933z m-114.767644 0h57.389511c12.743111 0 22.141156 0.3072 30.208 4.551111 7.896178 4.232533 12.617956 10.433422 12.617955 21.014755 0 15.143822-11.104711 22.960356-17.567289 25.315556 5.449956 1.888711 10.114844 5.233778 12.344889 7.998578 3.515733 4.721778 4.118756 8.942933 4.118756 17.408v18.659555h-25.156267l-0.091022-11.969422c0-5.711644 0.591644-13.9264-3.948089-18.500267-3.640889-3.333689-9.193244-4.061867-18.181689-4.061866h-26.783289v34.542933h-24.940089l-0.011377-94.958933z m-100.568178 0h83.342222v19.774577h-58.390755v17.112178h56.991288v19.456h-56.991288v18.966756h58.390755v19.638044h-83.342222v-94.947555z" fill="#FFFFFF" p-id="4668"></path><path d="M4118.755556 352.711111h-819.2a45.511111 45.511111 0 0 0-45.511112 45.511111v477.866667a45.511111 45.511111 0 0 0 45.511112 45.511111h819.2a45.511111 45.511111 0 0 0 45.511111-45.511111V398.222222a45.511111 45.511111 0 0 0-45.511111-45.511111z" fill="#DDDDDD" p-id="4669"></path><path d="M4118.755556 364.088889h-819.2a34.133333 34.133333 0 0 0-34.133334 34.133333v477.866667a34.133333 34.133333 0 0 0 34.133334 34.133333h819.2a34.133333 34.133333 0 0 0 34.133333-34.133333V398.222222a34.133333 34.133333 0 0 0-34.133333-34.133333z" fill="#FFFFFF" p-id="4670"></path><path d="M4022.283378 571.733333c26.817422 0 41.5744 12.401778 41.5744 35.84 1.342578 17.92-10.729244 33.086578-26.817422 35.84L4073.244444 694.419911h-28.16l-30.845155-49.618489h-2.685156v49.618489h-22.789689V571.733333h33.518934z m-10.729245 56.513423h6.712889c14.7456 0 21.447111-6.883556 21.447111-19.296712 0-11.036444-6.701511-17.92-21.447111-17.92h-6.712889v37.216712z m-101.910755 66.173155h64.364089v-20.673422h-41.5744v-33.086578h40.231822v-20.673422h-40.231822v-27.579733h41.5744V571.733333h-64.364089v122.686578z m-67.060622-39.970133l-30.833778-82.716445h-24.143645l49.618489 125.451378h12.071822l49.618489-125.451378h-24.143644l-32.187733 82.716445z m-272.224712-20.6848c0 34.463289 26.817422 63.408356 60.347734 63.408355 10.729244 0 20.115911-2.753422 29.502578-6.883555v-27.579734c-6.701511 8.271644-16.088178 13.789867-26.817423 13.789867-21.458489 0-38.889244-16.543289-38.889244-38.593422v-2.7648c-1.342578-22.050133 16.088178-41.358222 37.546667-42.734933 10.729244 0 21.458489 5.518222 28.16 13.789866v-27.579733c-8.044089-5.506844-18.773333-6.883556-28.16-6.883556-34.872889-2.7648-61.690311 26.191644-61.690312 62.031645z m-41.5744-15.1552c-13.403022-5.518222-17.430756-8.271644-17.430755-15.166578 1.342578-8.271644 8.044089-15.166578 16.088178-13.789867 6.712889 0 13.4144 4.141511 18.784711 9.648356l12.060444-16.543289c-9.386667-8.271644-21.447111-13.778489-33.518933-13.778489-18.773333-1.388089-34.872889 13.778489-36.215467 33.0752v1.388089c0 16.543289 6.712889 26.191644 28.171378 33.086578 5.358933 1.365333 10.717867 4.130133 16.088178 6.883555 4.027733 2.7648 6.701511 6.894933 6.701511 12.401778 0 9.659733-8.044089 17.931378-16.088178 17.931378h-1.342578c-10.729244 0-20.115911-6.894933-24.143644-16.543289l-14.7456 15.166578c8.044089 15.166578 24.143644 23.438222 40.231822 23.438222 21.458489 1.365333 38.889244-15.166578 40.231822-37.228089v-4.130133c-1.342578-16.543289-8.044089-24.814933-34.872889-35.84z m-77.778488 75.810133h22.801066V571.733333h-22.801066v122.686578zM3345.066667 571.733333h40.231822c32.187733 1.376711 57.662578 28.945067 56.32 62.031645 0 17.92-8.044089 34.474667-21.458489 46.876444-12.060444 9.648356-26.817422 15.1552-41.563022 13.778489H3345.066667V571.733333z m29.502577 102.013156c10.729244 1.376711 22.801067-2.753422 30.845156-9.648356 8.044089-8.271644 12.071822-19.296711 12.071822-31.709866 0-11.036444-4.027733-22.050133-12.071822-30.321778-8.044089-6.894933-20.115911-11.036444-30.845156-9.648356h-6.701511v81.328356h6.701511z" fill="#000000" p-id="4671"></path><path d="M3728.600178 568.888889c-33.530311 0-61.690311 27.568356-61.690311 63.408355 0 34.474667 26.8288 63.419733 61.690311 64.796445 34.861511 1.376711 61.690311-27.568356 63.032889-63.408356-1.342578-35.84-28.171378-64.796444-63.032889-64.796444z" fill="#FD6020" p-id="4672"></path><path d="M3663.644444 910.222222l489.244445-136.533333v102.4a34.133333 34.133333 0 0 1-34.133333 34.133333h-455.111112z" fill="#FD6020" p-id="4673"></path><path d="M576.443733 63.2832c-9.329778-6.417067-21.504-9.6256-36.522666-9.6256h-58.140445c-4.596622 0-7.133867 2.298311-7.623111 6.894933l-23.620267 148.252445a4.858311 4.858311 0 0 0 1.092267 3.982222c0.967111 1.217422 2.184533 1.820444 3.640889 1.820444h27.602489c4.846933 0 7.509333-2.286933 7.998578-6.894933l6.542222-39.970133a7.054222 7.054222 0 0 1 2.537244-4.721778 11.218489 11.218489 0 0 1 5.461334-2.366578c2.173156-0.352711 4.232533-0.534756 6.166755-0.534755 1.934222 0 4.243911 0.113778 6.906311 0.352711 2.6624 0.250311 4.357689 0.364089 5.085867 0.364089 20.832711 0 37.182578-5.870933 49.0496-17.624178 11.867022-11.741867 17.806222-28.023467 17.806222-48.867556 0-14.290489-4.664889-24.644267-13.994666-31.061333z m-29.980444 44.509867c-1.217422 8.476444-4.357689 14.051556-9.443556 16.713955-5.085867 2.673778-12.356267 3.9936-21.799822 3.9936l-11.992178 0.364089 6.178134-38.877867c0.477867-2.6624 2.048-3.9936 4.721777-3.9936h6.906312c9.682489 0 16.713956 1.399467 21.071644 4.175645 4.357689 2.787556 5.802667 8.669867 4.357689 17.635555z" fill="#003087" p-id="4674"></path><path d="M1189.933511 53.6576h-26.874311c-2.673778 0-4.243911 1.3312-4.733156 3.9936l-23.608888 151.153778-0.364089 0.728178a5.12 5.12 0 0 0 1.444977 3.447466 4.653511 4.653511 0 0 0 3.640889 1.6384h23.984356c4.596622 0 7.133867-2.298311 7.623111-6.906311L1194.666667 59.118933v-0.375466c0-3.390578-1.581511-5.085867-4.733156-5.085867z" fill="#009CDE" p-id="4675"></path><path d="M865.109333 112.162133a5.154133 5.154133 0 0 0-1.444977-3.447466 4.323556 4.323556 0 0 0-3.2768-1.6384h-27.977956c-2.6624 0-4.846933 1.217422-6.542222 3.629511l-38.513778 56.684089-15.985778-54.499556c-1.217422-3.868444-3.868444-5.814044-7.9872-5.814044h-27.261155a4.289422 4.289422 0 0 0-3.265423 1.6384 5.12 5.12 0 0 0-1.444977 3.447466c0 0.477867 2.3552 7.623111 7.076977 21.435734l15.2576 44.691911c5.461333 15.985778 8.305778 24.462222 8.533334 25.429333-19.854222 27.136-29.787022 41.665422-29.787022 43.599645 0 3.151644 1.570133 4.733156 4.733155 4.733155h27.977956c2.6624 0 4.835556-1.217422 6.530844-3.640889l92.660622-133.711644c0.477867-0.477867 0.7168-1.319822 0.7168-2.537245z" fill="#003087" p-id="4676"></path><path d="M1125.637689 107.064889h-27.625245c-3.390578 0-5.438578 4.004978-6.166755 12.003555-6.303289-9.693867-17.806222-14.5408-34.520178-14.5408-17.442133 0-32.278756 6.542222-44.509867 19.626667-12.231111 13.084444-18.352356 28.4672-18.352355 46.148267 0 14.290489 4.187022 25.679644 12.538311 34.144711 8.351289 8.487822 19.5584 12.720356 33.609956 12.720355 7.020089 0 14.165333-1.456356 21.435733-4.357688 7.2704-2.912711 12.959289-6.781156 17.078044-11.628089 0 0.238933-0.250311 1.3312-0.728177 3.265422-0.489244 1.934222-0.728178 3.401956-0.728178 4.357689 0 3.879822 1.570133 5.814044 4.733155 5.814044h25.065245c4.596622 0 7.2704-2.298311 7.9872-6.894933l14.904889-94.833778a4.892444 4.892444 0 0 0-1.092267-4.004978 4.494222 4.494222 0 0 0-3.640889-1.820444z m-47.422578 71.588978a30.765511 30.765511 0 0 1-22.345955 9.079466c-7.031467 0-12.708978-1.934222-17.066667-5.802666-4.369067-3.868444-6.5536-9.204622-6.5536-15.997156 0-8.954311 3.026489-16.531911 9.090844-22.698667 6.0416-6.178133 13.562311-9.272889 22.528-9.272888 6.769778 0 12.401778 2.002489 16.896 5.996088 4.471467 3.9936 6.712889 9.511822 6.712889 16.531912 0 8.726756-3.083378 16.110933-9.261511 22.163911z" fill="#009CDE" p-id="4677"></path><path d="M712.874667 107.064889h-27.625245c-3.390578 0-5.449956 4.004978-6.166755 12.003555-6.542222-9.693867-18.056533-14.5408-34.520178-14.5408-17.442133 0-32.278756 6.542222-44.509867 19.626667-12.242489 13.084444-18.352356 28.4672-18.352355 46.148267 0 14.290489 4.175644 25.679644 12.538311 34.144711 8.351289 8.487822 19.5584 12.720356 33.609955 12.720355 6.781156 0 13.801244-1.456356 21.071645-4.357688 7.2704-2.912711 13.084444-6.781156 17.442133-11.628089a24.484978 24.484978 0 0 0-1.456355 7.623111c0 3.879822 1.570133 5.814044 4.721777 5.814044h25.076623c4.596622 0 7.259022-2.298311 7.9872-6.894933l14.904888-94.833778a4.892444 4.892444 0 0 0-1.092266-4.004978 4.482844 4.482844 0 0 0-3.640889-1.820444z m-47.422578 71.771022c-6.178133 5.9392-13.755733 8.897422-22.710045 8.897422-7.020089 0-12.652089-1.934222-16.896-5.802666-4.243911-3.868444-6.360178-9.204622-6.360177-15.997156 0-8.954311 3.026489-16.531911 9.090844-22.698667 6.052978-6.178133 13.562311-9.272889 22.528-9.272888 6.781156 0 12.401778 2.002489 16.896 5.996088 4.471467 3.9936 6.712889 9.511822 6.712889 16.531912 0 8.965689-3.083378 16.418133-9.261511 22.345955z" fill="#003087" p-id="4678"></path><path d="M989.195378 63.2832c-9.329778-6.417067-21.504-9.6256-36.522667-9.6256h-57.764978c-4.846933 0-7.509333 2.298311-7.998577 6.894933l-23.608889 148.252445a4.846933 4.846933 0 0 0 1.092266 3.982222c0.955733 1.217422 2.173156 1.820444 3.629511 1.820444h29.787023c2.912711 0 4.846933-1.570133 5.814044-4.7104l6.542222-42.154666a7.054222 7.054222 0 0 1 2.548623-4.721778 11.195733 11.195733 0 0 1 5.449955-2.366578c2.173156-0.352711 4.232533-0.534756 6.178133-0.534755 1.934222 0 4.232533 0.113778 6.894934 0.364089 2.6624 0.227556 4.369067 0.352711 5.085866 0.352711 20.844089 0 37.182578-5.870933 49.060978-17.624178 11.867022-11.741867 17.794844-28.023467 17.794845-48.867556 0-14.290489-4.664889-24.644267-13.983289-31.061333z m-37.239467 59.767467c-5.336178 3.640889-13.323378 5.461333-23.984355 5.461333l-11.628089 0.352711 6.178133-38.877867c0.477867-2.6624 2.048-3.9936 4.721778-3.9936h6.542222c5.3248 0 9.557333 0.238933 12.720356 0.728178 3.140267 0.477867 6.178133 1.991111 9.079466 4.539734 2.912711 2.537244 4.357689 6.235022 4.357689 11.081955 0 10.171733-2.6624 17.066667-7.9872 20.707556z" fill="#009CDE" p-id="4679"></path><path d="M258.309689 261.449956l4.664889-29.7984-10.399289-0.238934h-49.686756l34.531556-219.818666a2.821689 2.821689 0 0 1 2.810311-2.400712h83.774578c27.818667 0 47.012978 5.802667 57.025422 17.271467 4.699022 5.381689 7.691378 11.002311 9.136356 17.180445 1.524622 6.508089 1.547378 14.256356 0.068266 23.722666l-0.113778 0.682667v6.064355l4.7104 2.673778c3.948089 2.116267 7.088356 4.516978 9.511823 7.281778 4.016356 4.608 6.610489 10.4448 7.714133 17.385244 1.137778 7.122489 0.750933 15.610311-1.103644 25.213156-2.139022 11.047822-5.609244 20.673422-10.285512 28.546844a58.5728 58.5728 0 0 1-16.304355 17.931378 66.025244 66.025244 0 0 1-21.959111 9.955556c-8.078222 2.104889-17.316978 3.185778-27.431822 3.185778h-6.519467c-4.664889 0-9.193244 1.672533-12.743111 4.699022-3.572622 3.083378-5.916444 7.293156-6.644622 11.912533l-0.489245 2.673778-8.260267 52.508444-0.375466 1.934223c-0.091022 0.603022-0.261689 0.910222-0.512 1.115022a1.365333 1.365333 0 0 1-0.864711 0.318578h-40.254578" fill="#28356A" p-id="4680"></path><path d="M399.280356 68.755911a146.773333 146.773333 0 0 1-0.864712 4.926578c-11.036444 56.957156-48.8448 76.629333-97.120711 76.629333h-24.576a11.946667 11.946667 0 0 0-11.798755 10.160356l-16.156445 102.855111a6.303289 6.303289 0 0 0 6.212267 7.281778h43.599644c5.154133 0 9.545956-3.754667 10.353778-8.874667l0.432356-2.218667 8.203378-52.303644 0.534755-2.8672a10.501689 10.501689 0 0 1 10.353778-8.897422h6.530844c42.234311 0 75.298133-17.214578 84.957867-67.037867 4.039111-20.821333 1.9456-38.1952-8.726756-50.414933a41.654044 41.654044 0 0 0-11.946666-9.238756" fill="#298FC2" p-id="4681"></path><path d="M387.709156 64.125156a86.334578 86.334578 0 0 0-10.740623-2.389334c-6.621867-1.080889-13.880889-1.592889-21.663289-1.592889h-65.672533a10.501689 10.501689 0 0 0-10.353778 8.897423l-13.960533 88.837688-0.4096 2.594134a11.946667 11.946667 0 0 1 11.798756-10.160356h24.576c48.287289 0 86.084267-19.683556 97.132088-76.629333 0.329956-1.683911 0.603022-3.322311 0.853334-4.926578a58.629689 58.629689 0 0 0-11.559822-4.630755" fill="#22284F" p-id="4682"></path><path d="M279.290311 69.040356a10.467556 10.467556 0 0 1 10.353778-8.874667h65.661155c7.7824 0 15.041422 0.500622 21.674667 1.581511a86.596267 86.596267 0 0 1 13.232356 3.163022c3.254044 1.080889 6.280533 2.366578 9.068089 3.845689 3.299556-21.048889-0.022756-35.384889-11.355023-48.355555C375.432533 6.109867 352.881778 0 324.016356 0h-83.774578c-5.893689 0-10.922667 4.3008-11.832889 10.160356l-34.895645 222.094222a7.213511 7.213511 0 0 0 7.099734 8.351289h51.723378l26.953955-171.565511" fill="#28356A" p-id="4683"></path><path d="M113.777778 398.222222a45.511111 45.511111 0 0 1 45.511111-45.511111h819.2a45.511111 45.511111 0 0 1 45.511111 45.511111v477.866667a45.511111 45.511111 0 0 1-45.511111 45.511111H159.288889a45.511111 45.511111 0 0 1-45.511111-45.511111V398.222222z" fill="#DDDDDD" p-id="4684"></path><path d="M978.488889 364.088889H159.288889a34.133333 34.133333 0 0 0-34.133333 34.133333v477.866667a34.133333 34.133333 0 0 0 34.133333 34.133333h819.2a34.133333 34.133333 0 0 0 34.133333-34.133333V398.222222a34.133333 34.133333 0 0 0-34.133333-34.133333z" fill="#1A1F71" p-id="4685"></path><path d="M467.114667 537.964089l-86.493867 206.085689H324.039111l-42.712178-164.443022c-2.139022-9.614222-5.347556-13.880889-12.811377-18.158934-12.822756-6.405689-34.167467-13.880889-52.3264-17.078044l1.069511-6.405689h90.760533c11.753244 0 22.4256 7.4752 24.564622 21.356089l22.414222 119.580444 55.523556-139.8784h56.604444v-1.058133z m221.036089 138.808889c0-54.454044-74.752-57.662578-74.752-81.157689 0-7.463822 7.486578-14.939022 22.4256-17.078045 7.4752-1.069511 28.831289-2.139022 52.337777 9.614223l9.602845-43.781689C684.942222 540.091733 668.933689 534.755556 647.5776 534.755556c-52.3264 0-89.7024 27.761778-89.7024 68.346311 0 29.889422 26.703644 45.909333 46.990222 55.523555 20.286578 9.602844 27.761778 16.008533 27.761778 25.622756 0 13.880889-16.019911 20.286578-32.039822 20.286578-26.692267 0-42.712178-7.4752-54.454045-12.811378l-9.614222 44.8512c12.822756 5.347556 35.236978 10.672356 58.732089 10.672355 55.523556 0 91.830044-27.761778 92.899556-70.473955z m138.808888 67.2768H876.088889l-42.712178-206.085689H787.456c-10.672356 0-19.217067 6.405689-22.414222 14.9504L684.942222 744.0384h55.523556l10.695111-30.970311h68.334933l7.4752 30.970311z m-59.790222-72.612978l27.761778-76.879644 16.019911 76.879644h-43.781689zM542.9248 537.964089l-43.770311 206.085689h-53.395911l43.781689-206.085689h53.384533z" fill="#FFFFFF" p-id="4686"></path><path d="M56.888889 153.6A39.822222 39.822222 0 0 0 17.066667 193.422222v773.688889A39.822222 39.822222 0 0 0 56.888889 1006.933333h4164.266667a39.822222 39.822222 0 0 0 39.822222-39.822222V193.422222a39.822222 39.822222 0 0 0-39.822222-39.822222H1280v-11.377778H4221.155556a51.2 51.2 0 0 1 51.2 51.2v773.688889a51.2 51.2 0 0 1-51.2 51.2H56.888889A51.2 51.2 0 0 1 5.688889 967.111111V193.422222A51.2 51.2 0 0 1 56.888889 142.222222h79.644444v11.377778H56.888889z" fill="#666666" p-id="4687"></path></svg>