<?xml version="1.0" standalone="no"?><!DOCTYPE svg PUBLIC "-//W3C//DTD SVG 1.1//EN" "http://www.w3.org/Graphics/SVG/1.1/DTD/svg11.dtd"><svg t="1764210897752" class="icon" viewBox="0 0 1024 1024" version="1.1" xmlns="http://www.w3.org/2000/svg" p-id="8198" xmlns:xlink="http://www.w3.org/1999/xlink" width="200" height="200"><path d="M512 512H0A512 512 0 1 0 512 0 512 512 0 0 0 0 512z" fill="#113984" p-id="8199"></path><path d="M467.163429 325.778286h190.610285c100.059429 0 138.166857 52.406857 133.412572 128.621714-9.545143 128.621714-85.76 200.082286-185.819429 200.082286h-47.542857c-14.299429 0-23.808 9.545143-28.598857 33.353143l-23.808 147.675428c0 9.545143-4.754286 14.299429-9.545143 14.299429h-119.113143c-14.299429 0-14.299429-9.545143-14.299428-28.598857l71.460571-466.870858a31.488 31.488 0 0 1 33.243429-28.562285z" fill="#009DE2" p-id="8200"></path><path d="M343.296 182.857143h195.328c52.406857 0 119.113143 0 161.974857 42.861714a143.506286 143.506286 0 0 1 42.861714 109.714286c-14.299429 152.466286-100.059429 233.435429-219.136 233.435428h-95.268571c-19.053714 0-28.598857 14.299429-33.353143 42.861715l-28.598857 171.52c0 9.545143-4.754286 19.053714-14.299429 19.053714H233.691429c-14.299429 0-14.299429-9.545143-14.299429-33.353143L305.188571 216.210286A36.278857 36.278857 0 0 1 343.296 182.857143z" fill="#FFFFFF" p-id="8201"></path></svg>