<?xml version="1.0" standalone="no"?><!DOCTYPE svg PUBLIC "-//W3C//DTD SVG 1.1//EN" "http://www.w3.org/Graphics/SVG/1.1/DTD/svg11.dtd"><svg t="1764210923352" class="icon" viewBox="0 0 1618 1024" version="1.1" xmlns="http://www.w3.org/2000/svg" p-id="9183" xmlns:xlink="http://www.w3.org/1999/xlink" width="316.015625" height="200"><path d="M16.24231 16.24231m97.539197 0l1137.786628 0q97.539197 0 97.539197 97.539197l0 625.769845q0 97.539197-97.539197 97.539197l-1137.786628 0q-97.539197 0-97.539197-97.539197l0-625.769845q0-97.539197 97.539197-97.539197Z" fill="#009CDE" p-id="9184"></path><path d="M301.520994 325.614228c7.680252 13.084873 11.122142 26.511091 11.122143 43.521427 0 54.188443-44.858359 124.59075-81.268442 174.00037H148.228859l-33.366427-205.660074 72.820164-7.111345 17.636134 146.323019c16.498319-27.677352 36.808318-71.170333 36.808317-100.810416 0-16.24231-2.702311-27.307562-6.912226-36.410082l66.306173-13.824453z m92.84571 129.710919c0 24.17857 13.027983 33.622435 30.265881 33.622435 18.802394 0 36.808318-4.721933 60.190418-16.98189l-8.818067 61.669577c-16.498319 8.30605-42.156048 13.852899-67.074199 13.852899-63.234073 0-85.876593-39.539074-85.876592-88.977139 0-64.058989 36.808318-132.10033 112.700583-132.10033 41.814704 0 65.139913 24.150125 65.139912 57.744115 0 54.188443-67.415543 70.800543-106.527936 71.170333z m1.536051-39.140839c13.397772 0 47.133989-6.314874 47.133989-26.08441 0-9.500756-6.513991-14.222688-14.165798-14.222689-13.426218 0-31.033906 16.583655-32.968191 40.307099z m315.174775-42.298275c0 7.907815-1.194706 19.371302-2.332521 26.880881l-21.84605 142.369111h-70.914324l19.911764-130.507389c0.398235-3.555672 1.564496-10.667016 1.564496-14.620924 0-9.500756-5.774411-11.861722-12.686639-11.861722-9.159411 0-18.375713 4.352143-24.519914 7.50958l-22.58563 149.480455H506.327707l32.569957-213.169654h61.726468l0.768025 17.010335c14.564033-9.870546 33.736217-20.566007 60.929997-20.566007 36.040292 0 48.698485 19.001512 48.698485 47.475334z m210.495788-24.150125c20.281554-14.990714 39.453738-23.325209 65.907938-23.325209 36.410082 0 49.068275 19.001512 49.068275 47.475334 0 7.907815-1.137815 19.371302-2.304075 26.880881l-21.84605 142.369111h-70.914324l20.309999-133.26659c0.36979-3.555672 1.137815-7.907815 1.137815-10.667017 0-10.695462-5.745966-13.084873-12.658193-13.084873-8.818067 0-17.607688 3.982353-24.121679 7.538025l-22.614075 149.480455H832.59618l20.309999-133.26659c0.36979-3.555672 1.137815-7.907815 1.137815-10.667017 0-10.695462-5.745966-13.084873-12.629748-13.084873-9.216302 0-18.404159 4.380588-24.54836 7.538025l-22.614074 149.480455h-71.284115l32.569957-213.169654h60.958442l1.934286 17.806806c14.165798-10.667016 33.337982-21.334033 58.995711-21.334033 22.244285-0.028445 36.808318 9.870546 44.090334 23.325209z m133.437263 106.783945c0-67.216425 34.504242-130.109154 113.838398-130.109154 59.792182 0 81.638231 36.410082 81.638231 86.616172 0 66.4484-34.106007 135.257767-115.374448 135.257767-60.161972 0-80.102181-40.73378-80.102181-91.764785z m122.656465-44.659242c0-17.408571-4.238361-29.298738-16.868109-29.298738-27.990251 0-33.736217 51.031006-33.736217 77.115416 0 19.797982 5.404622 32.05794 18.005924 32.05794 26.4542 0 32.598402-53.790208 32.598402-79.903063z" fill="#FFFFFF" p-id="9185"></path></svg>